. 
  
http://www.torrenting.com/        :     Greatest Movie Tracker on The Net!!!
 
http://www.Torrenting.com          :     Once & For all ;)


               www . Torrenting . Com 

(((((((((((((= Enjoy No RAR releases =))))))))))))))))))))


...................................NFO:....................................

.                                                                                                     
       
     
     
       
       
     
     
                                         
                                         
                EXVID                    
                                         
         
                                         
         Filled the Archives             
                                         
         
                                         
                With:                    
                                         
         
                                         
                                    
     E240                           
                                    
     SP               (C) 2009      
                                         
     
     
     
                                                                                  
                                                                                   
         Someone.Elses.Happiness.2005.FESTiVAL.DVDRip.XviD-EXViD                    
                                                                                   
                                                                                  
     
                                                                                               
EXViD aims to iNTERNAL those releases which have been lost in the archives.
EXViD aims to PRE non-internal releases which have poor sources and are likely skipped by others. 
http://www.imdb.com/title/tt0262782/
Subtitles: EN, FR
Date: 2011.06

Director: Fien Troch

Genres:
Drama

Plot:
A village outside Brussels is rocked by the hit-and-run killing of a child.

Cast:
Ina Geerts 	 ... 	 Christine 
Johanna ter Steege 	 ... 	 Ann 
Johan Leysen 	 ... 	 Francis 
Natali Broods 	 ... 	 Gerda 
Elmo Mistlaen 	 ... 	 Sam 
Peter Van den Begin 	 ... 	 Mark 
Josse De Pauw 	 ... 	 Inspecteur 
Viviane de Muynck 	 ... 	 Moeder Christine 
Gilles Lagay 	 ... 	 Vader Christine 
Geert Van Rampelberg 	 ... 	 Collega Mark 
Robbie Cleiren 	 ... 	 Fred 
Bruno Vanden Broucke 	 ... 	 Hendrik 
Sara De Bosschere 	 ... 	 Marie 
Frank Chartier 	 ... 	 Njord 
Laure Humblet 	 ... 	 Vicky

Stats:
Format                           : AVI
Format/Info                      : Audio Video Interleave
File size                        : 699 MiB
Duration                         : 1h 37mn
Overall bit rate                 : 1 005 Kbps
Writing application              : VirtualDubMod 1.5.10.2 (build 2540/release)
Writing library                  : VirtualDubMod build 2540/release

Video
ID                               : 0
Format                           : MPEG-4 Visual
Format profile                   : Advanced Simple@L5
Format settings, BVOP            : Yes
Format settings, QPel            : No
Format settings, GMC             : No warppoints
Format settings, Matrix          : Default (H.263)
Muxing mode                      : Packed bitstream
Codec ID                         : XVID
Codec ID/Hint                    : XviD
Duration                         : 1h 37mn
Bit rate                         : 772 Kbps
Width                            : 624 pixels
Height                           : 256 pixels
Display aspect ratio             : 2.40:1
Frame rate                       : 25.000 fps
Color space                      : YUV
Chroma subsampling               : 4:2:0
Bit depth                        : 8 bits
Scan type                        : Progressive
Bits/(Pixel*Frame)               : 0.193
Stream size                      : 537 MiB (77%)
Writing library                  : XviD 62

Audio
ID                               : 1
Format                           : AC-3
Format/Info                      : Audio Coding 3
Mode extension                   : CM (complete main)
Codec ID                         : 2000
Duration                         : 1h 37mn
Bit rate mode                    : Constant
Bit rate                         : 224 Kbps
Channel(s)                       : 2 channels
Channel positions                : Front: L R
Sampling rate                    : 48.0 KHz
Bit depth                        : 16 bits
Stream size                      : 156 MiB (22%)
Alignment                        : Split accross interleaves
Interleave, duration             : 40 ms (1.00 video frame)
Interleave, preload duration     : 500 ms




Release notes:
English .srt subs included to fit on disc.

enjoy!

Looking for:
75TB+ Archives
DUTCH/FLEMiSH Archives
                                                                                                    
Greets: CRBS EPiSODE FiCO FLS iLS KLASSiGER LiPSYNC MADE NODLABS RUNNER SPRiNTER      
   

                                                                    ASCII DONE BY XX^NFO 2oo9